<svg width="1284" height="672" viewBox="0 0 1284 672" fill="none" xmlns="http://www.w3.org/2000/svg">
<rect x="131.605" y="44.1689" width="1055.15" height="466.227" rx="32.7177" fill="white"/>
<rect x="131.605" y="44.1689" width="1055.15" height="466.227" rx="32.7177" fill="white"/>
<rect x="170.865" y="76.8865" width="296.095" height="402.427" rx="26.1741" fill="#F0F1F9"/>
<rect x="493.135" y="76.8865" width="296.095" height="176.675" rx="26.1741" fill="#F0F1F9"/>
<line x1="499.678" y1="132.098" x2="781.05" y2="132.098" stroke="white" stroke-width="0.817942" stroke-dasharray="3.27 3.27"/>
<line x1="499.678" y1="145.185" x2="781.05" y2="145.185" stroke="white" stroke-width="0.817942" stroke-dasharray="3.27 3.27"/>
<line x1="499.678" y1="158.272" x2="781.05" y2="158.272" stroke="white" stroke-width="0.817942" stroke-dasharray="3.27 3.27"/>
<line x1="499.678" y1="171.359" x2="781.05" y2="171.359" stroke="white" stroke-width="0.817942" stroke-dasharray="3.27 3.27"/>
<rect x="493.135" y="279.736" width="296.095" height="196.306" rx="26.1741" fill="#F0F1F9"/>
<path d="M210.975 218.702L252.523 123.657H284.024L325.572 218.702H292.442L261.756 138.864H274.248L243.562 218.702H210.975ZM235.687 202.137L243.833 179.055H287.554L295.701 202.137H235.687ZM388.256 218.702V205.531L386.083 202.001V177.018C386.083 173.397 384.952 170.636 382.689 168.735C380.517 166.835 376.941 165.884 371.962 165.884C368.613 165.884 365.219 166.427 361.779 167.513C358.339 168.509 355.398 169.912 352.953 171.723L343.177 151.492C347.522 148.776 352.727 146.694 358.792 145.246C364.857 143.797 370.786 143.073 376.579 143.073C389.342 143.073 399.209 145.925 406.179 151.627C413.239 157.33 416.769 166.382 416.769 178.783V218.702H388.256ZM367.21 220.06C361.145 220.06 356.076 219.019 352.003 216.937C347.93 214.855 344.852 212.094 342.77 208.654C340.688 205.124 339.647 201.232 339.647 196.977C339.647 192.18 340.869 188.107 343.313 184.757C345.757 181.408 349.469 178.874 354.447 177.154C359.516 175.434 365.898 174.574 373.592 174.574H389.071V189.374H378.48C375.221 189.374 372.822 189.917 371.284 191.003C369.835 191.999 369.111 193.538 369.111 195.62C369.111 197.339 369.745 198.788 371.012 199.964C372.37 201.051 374.18 201.594 376.443 201.594C378.525 201.594 380.426 201.051 382.146 199.964C383.956 198.788 385.269 196.977 386.083 194.533L390.021 203.631C388.844 209.152 386.355 213.271 382.553 215.986C378.751 218.702 373.637 220.06 367.21 220.06Z" fill="#737DC9"/>
<rect x="815.402" y="76.8865" width="318.997" height="114.512" rx="26.1741" fill="#F0F1F9"/>
<rect x="815.402" y="217.573" width="318.997" height="114.512" rx="26.1741" fill="#F0F1F9"/>
<rect x="815.402" y="358.259" width="318.997" height="114.512" rx="26.1741" fill="#F0F1F9"/>
<path d="M530.362 176.124L512.314 193.317C508.424 197.022 506.223 202.159 506.223 207.531V212.665C506.223 223.506 515.012 232.295 525.853 232.295H762.315C773.442 232.295 782.344 223.057 781.932 211.937L781.258 193.768C781.123 190.115 779.97 186.571 777.929 183.537L758.376 154.477C750.705 143.076 733.997 142.881 726.062 154.099L700.459 190.293C693.156 200.617 678.141 201.444 669.749 191.985L641.183 159.787C633.359 150.969 619.582 150.987 611.78 159.825L593.623 180.399C586.878 188.04 575.408 189.249 567.218 183.182L555.588 174.565C547.919 168.883 537.274 169.541 530.362 176.124Z" fill="url(#paint0_linear_329_316)"/>
<g filter="url(#filter0_d_329_316)">
<rect x="39.9941" y="94.8813" width="181.583" height="104.697" rx="13.0871" fill="white"/>
</g>
<rect width="65.4354" height="65.4354" rx="6.54354" transform="matrix(1 0 0 -1 53.082 179.947)" fill="#E2E4F4"/>
<rect width="76.8865" height="3.27177" rx="1.63588" transform="matrix(1 0 0 -1 123.424 163.588)" fill="#E2E4F4"/>
<rect width="85.066" height="6.54354" rx="3.27177" transform="matrix(1 0 0 -1 123.424 153.773)" fill="#E2E4F4"/>
<rect width="85.066" height="19.6306" rx="3.27177" transform="matrix(1 0 0 -1 123.424 140.686)" fill="#E2E4F4"/>
<rect width="76.8865" height="3.27177" rx="1.63588" transform="matrix(1 0 0 -1 123.424 173.404)" fill="#E2E4F4"/>
<path d="M72.9437 140.222L64.0802 157.949C63.5364 159.037 64.3273 160.317 65.5434 160.317H103.513C104.91 160.317 105.664 158.679 104.756 157.617L92.9061 143.768C92.2081 142.952 90.9269 143.018 90.3169 143.902L84.8587 151.807C84.1654 152.811 82.6565 152.73 82.0747 151.657L75.8448 140.174C75.2139 139.011 73.5353 139.039 72.9437 140.222Z" fill="white"/>
<rect x="183.953" y="412.243" width="237.203" height="6.54354" rx="3.27177" fill="#737DC9"/>
<rect x="183.953" y="431.873" width="237.203" height="6.54354" rx="3.27177" fill="#737DC9"/>
<circle cx="97.2506" cy="132.507" r="6.54354" fill="white"/>
<rect x="183.953" y="255.198" width="263.377" height="19.6306" rx="3.27177" fill="#737DC9"/>
<rect x="831.762" y="107.968" width="263.377" height="13.0871" rx="3.27177" fill="#737DC9"/>
<rect x="831.762" y="248.654" width="263.377" height="13.0871" rx="3.27177" fill="#737DC9"/>
<rect x="831.762" y="390.976" width="263.377" height="13.0871" rx="3.27177" fill="#737DC9"/>
<rect x="831.762" y="127.599" width="286.28" height="13.0871" rx="3.27177" fill="#737DC9"/>
<rect x="831.762" y="287.916" width="286.28" height="13.0871" rx="3.27177" fill="#737DC9"/>
<rect x="831.762" y="430.237" width="286.28" height="13.0871" rx="3.27177" fill="#737DC9"/>
<rect x="831.762" y="147.229" width="217.573" height="13.0871" rx="3.27177" fill="#737DC9"/>
<rect x="831.762" y="268.285" width="217.573" height="13.0871" rx="3.27177" fill="#737DC9"/>
<rect x="831.762" y="410.607" width="217.573" height="13.0871" rx="3.27177" fill="#737DC9"/>
<rect x="183.953" y="287.916" width="263.377" height="13.0871" rx="3.27177" fill="#737DC9"/>
<rect x="183.953" y="314.09" width="263.377" height="6.54354" rx="3.27177" fill="#737DC9"/>
<rect x="512.766" y="104.697" width="39.2612" height="3.27177" rx="1.63588" fill="#737DC9"/>
<rect x="510.312" y="372.163" width="260.106" height="55.6201" rx="5.72559" fill="url(#paint1_linear_329_316)" fill-opacity="0.7" stroke="url(#paint2_linear_329_316)" stroke-width="1.63588"/>
<rect x="524.217" y="386.069" width="39.2612" height="19.6306" rx="1.63588" fill="#737DC9"/>
<rect x="524.217" y="410.607" width="39.2612" height="3.27177" rx="1.63588" fill="#737DC9"/>
<rect x="579.838" y="387.704" width="175.04" height="1.63588" rx="0.817942" fill="#737DC9"/>
<rect x="579.838" y="395.884" width="175.04" height="1.63588" rx="0.817942" fill="#737DC9"/>
<rect x="579.838" y="404.063" width="157.045" height="1.63588" rx="0.817942" fill="#737DC9"/>
<rect x="579.838" y="412.243" width="157.045" height="1.63588" rx="0.817942" fill="#737DC9"/>
<rect x="510.312" y="301.82" width="260.106" height="55.6201" rx="5.72559" fill="url(#paint3_linear_329_316)" fill-opacity="0.7" stroke="url(#paint4_linear_329_316)" stroke-width="1.63588"/>
<rect x="524.217" y="315.726" width="39.2612" height="19.6306" rx="1.63588" fill="#737DC9"/>
<rect x="524.217" y="340.264" width="39.2612" height="3.27177" rx="1.63588" fill="#737DC9"/>
<rect x="579.838" y="317.361" width="175.04" height="1.63588" rx="0.817942" fill="#737DC9"/>
<rect x="579.838" y="325.541" width="175.04" height="1.63588" rx="0.817942" fill="#737DC9"/>
<rect x="579.838" y="333.72" width="157.045" height="1.63588" rx="0.817942" fill="#737DC9"/>
<rect x="579.838" y="341.9" width="157.045" height="1.63588" rx="0.817942" fill="#737DC9"/>
<g clip-path="url(#clip0_329_316)">
<rect x="510.312" y="442.506" width="260.106" height="55.6201" rx="5.72559" fill="url(#paint5_linear_329_316)" fill-opacity="0.7" stroke="url(#paint6_linear_329_316)" stroke-width="1.63588"/>
<rect x="524.217" y="456.412" width="39.2612" height="19.6306" rx="1.63588" fill="#737DC9"/>
<rect x="579.838" y="458.047" width="175.04" height="1.63588" rx="0.817942" fill="#737DC9"/>
<rect x="579.838" y="466.227" width="175.04" height="1.63588" rx="0.817942" fill="#737DC9"/>
<rect x="579.838" y="474.406" width="157.045" height="1.63588" rx="0.817942" fill="#737DC9"/>
</g>
<rect x="512.766" y="114.512" width="31.0818" height="3.27177" rx="1.63588" fill="#737DC9"/>
<rect x="512.766" y="121.055" width="31.0818" height="3.27177" rx="1.63588" fill="#737DC9"/>
<rect x="183.953" y="333.72" width="263.377" height="6.54354" rx="3.27177" fill="#737DC9"/>
<rect x="183.953" y="353.351" width="263.377" height="6.54354" rx="3.27177" fill="#737DC9"/>
<rect x="183.953" y="372.981" width="263.377" height="6.54354" rx="3.27177" fill="#737DC9"/>
<rect x="183.953" y="392.612" width="263.377" height="6.54354" rx="3.27177" fill="#737DC9"/>
<g filter="url(#filter1_d_329_316)">
<rect x="82.5273" y="395.884" width="157.045" height="179.947" rx="13.0871" fill="white"/>
</g>
<rect width="75.2507" height="75.2507" rx="37.6253" transform="matrix(1 0 0 -1 123.424 490.765)" fill="#E2E4F4"/>
<rect width="104.697" height="3.27177" rx="1.63588" transform="matrix(1 0 0 -1 108.703 549.657)" fill="#E2E4F4"/>
<rect width="121.055" height="6.54354" rx="3.27177" transform="matrix(1 0 0 -1 100.521 536.57)" fill="#E2E4F4"/>
<rect width="130.871" height="19.6306" rx="3.27177" transform="matrix(1 0 0 -1 95.6152 520.211)" fill="#E2E4F4"/>
<rect width="130.871" height="19.6306" rx="3.27177" transform="matrix(1 0 0 -1 95.6152 520.211)" fill="#E2E4F4"/>
<rect width="91.6095" height="3.27177" rx="1.63588" transform="matrix(1 0 0 -1 115.246 559.472)" fill="#E2E4F4"/>
<path d="M145.123 447.322L134.531 467.09C133.947 468.18 134.736 469.499 135.973 469.499H180.389C181.788 469.499 182.542 467.857 181.63 466.796L167.619 450.496C166.882 449.639 165.52 449.769 164.959 450.749L159.644 460.026C159.046 461.071 157.563 461.133 156.879 460.143L147.911 447.164C147.215 446.157 145.701 446.243 145.123 447.322Z" fill="white"/>
<circle cx="175.774" cy="438.417" r="6.54354" fill="white"/>
<path d="M506.223 203.812L529.699 178.839C536.795 171.291 548.534 170.556 556.516 177.16L566.228 185.195C574.715 192.217 587.317 190.883 594.145 182.239L611.486 160.29C619.467 150.188 634.848 150.374 642.583 160.665L668.302 194.887C676.545 205.855 693.21 205.199 700.566 193.617L725.483 154.384C733.302 142.072 751.341 142.284 758.868 154.777L781.051 191.595" stroke="#737DC9" stroke-width="2.61741" stroke-linecap="round" stroke-linejoin="round"/>
<circle cx="749.15" cy="98.9711" r="4.08971" fill="white"/>
<circle cx="734.428" cy="98.9711" r="4.08971" fill="white"/>
<circle cx="719.705" cy="98.9711" r="4.08971" fill="white"/>
<g filter="url(#filter2_d_329_316)">
<rect x="1036.25" y="410.607" width="178.311" height="204.485" rx="13.0871" fill="white"/>
</g>
<rect width="139.05" height="14.723" rx="3.27177" transform="matrix(1 0 0 -1 1055.88 451.504)" fill="#E2E4F4"/>
<rect width="109.604" height="14.723" rx="3.27177" transform="matrix(1 0 0 -1 1055.88 479.314)" fill="#E2E4F4"/>
<rect width="139.05" height="14.723" rx="3.27177" transform="matrix(1 0 0 -1 1055.88 507.124)" fill="#E2E4F4"/>
<rect width="124.327" height="14.723" rx="3.27177" transform="matrix(1 0 0 -1 1055.88 534.934)" fill="#E2E4F4"/>
<rect width="109.604" height="14.723" rx="3.27177" transform="matrix(1 0 0 -1 1055.88 562.744)" fill="#E2E4F4"/>
<rect width="130.871" height="14.723" rx="3.27177" transform="matrix(1 0 0 -1 1055.88 590.554)" fill="#E2E4F4"/>
<g filter="url(#filter3_d_329_316)">
<rect x="1095.14" y="106.333" width="148.865" height="168.496" rx="13.0871" fill="white"/>
</g>
<path d="M1170.39 127.599C1159.42 127.599 1148.78 131.405 1140.3 138.368C1131.81 145.331 1126 155.02 1123.86 165.785C1121.72 176.549 1123.38 187.723 1128.55 197.403C1133.73 207.083 1142.1 214.669 1152.24 218.869C1162.38 223.069 1173.66 223.624 1184.16 220.438C1194.67 217.252 1203.74 210.522 1209.84 201.396C1215.93 192.27 1218.68 181.313 1217.6 170.39C1216.53 159.467 1211.7 149.255 1203.94 141.494L1189.05 156.38C1193.37 160.697 1196.06 166.377 1196.65 172.453C1197.25 178.529 1195.73 184.624 1192.33 189.701C1188.94 194.777 1183.89 198.52 1178.05 200.293C1172.21 202.065 1165.93 201.757 1160.29 199.42C1154.65 197.084 1150 192.864 1147.12 187.48C1144.24 182.095 1143.32 175.879 1144.51 169.891C1145.7 163.903 1148.93 158.514 1153.65 154.641C1158.37 150.767 1164.29 148.65 1170.39 148.65L1170.39 127.599Z" fill="#E2E4F4"/>
<path d="M1136.85 141.494C1130.95 147.39 1126.71 154.735 1124.56 162.789C1122.41 170.844 1122.42 179.324 1124.58 187.375C1126.75 195.425 1131 202.763 1136.91 208.647C1142.81 214.532 1150.17 218.756 1158.23 220.894C1166.28 223.032 1174.76 223.009 1182.81 220.826C1190.86 218.643 1198.19 214.378 1204.06 208.461C1209.93 202.544 1214.15 195.183 1216.27 187.121C1218.39 179.058 1218.35 170.578 1216.15 162.536L1195.85 168.084C1197.07 172.558 1197.09 177.275 1195.91 181.76C1194.73 186.245 1192.39 190.339 1189.12 193.631C1185.85 196.922 1181.78 199.295 1177.3 200.509C1172.82 201.723 1168.11 201.736 1163.62 200.547C1159.14 199.357 1155.05 197.008 1151.77 193.734C1148.48 190.461 1146.12 186.38 1144.91 181.901C1143.7 177.423 1143.7 172.706 1144.9 168.225C1146.1 163.745 1148.45 159.659 1151.73 156.38L1136.85 141.494Z" fill="#737DC9"/>
<rect x="1104.96" y="232.295" width="129.235" height="6.54354" rx="1.63588" fill="#E2E4F4"/>
<rect x="1104.96" y="247.018" width="112.876" height="6.54354" rx="1.63588" fill="#E2E4F4"/>
<defs>
<filter id="filter0_d_329_316" x="0.732925" y="62.1637" width="260.106" height="183.219" filterUnits="userSpaceOnUse" color-interpolation-filters="sRGB">
<feFlood flood-opacity="0" result="BackgroundImageFix"/>
<feColorMatrix in="SourceAlpha" type="matrix" values="0 0 0 0 0 0 0 0 0 0 0 0 0 0 0 0 0 0 127 0" result="hardAlpha"/>
<feOffset dy="6.54354"/>
<feGaussianBlur stdDeviation="19.6306"/>
<feComposite in2="hardAlpha" operator="out"/>
<feColorMatrix type="matrix" values="0 0 0 0 0 0 0 0 0 0 0 0 0 0 0 0 0 0 0.25 0"/>
<feBlend mode="normal" in2="BackgroundImageFix" result="effect1_dropShadow_329_316"/>
<feBlend mode="normal" in="SourceGraphic" in2="effect1_dropShadow_329_316" result="shape"/>
</filter>
<filter id="filter1_d_329_316" x="43.2661" y="363.166" width="235.567" height="258.47" filterUnits="userSpaceOnUse" color-interpolation-filters="sRGB">
<feFlood flood-opacity="0" result="BackgroundImageFix"/>
<feColorMatrix in="SourceAlpha" type="matrix" values="0 0 0 0 0 0 0 0 0 0 0 0 0 0 0 0 0 0 127 0" result="hardAlpha"/>
<feOffset dy="6.54354"/>
<feGaussianBlur stdDeviation="19.6306"/>
<feComposite in2="hardAlpha" operator="out"/>
<feColorMatrix type="matrix" values="0 0 0 0 0 0 0 0 0 0 0 0 0 0 0 0 0 0 0.25 0"/>
<feBlend mode="normal" in2="BackgroundImageFix" result="effect1_dropShadow_329_316"/>
<feBlend mode="normal" in="SourceGraphic" in2="effect1_dropShadow_329_316" result="shape"/>
</filter>
<filter id="filter2_d_329_316" x="996.987" y="377.889" width="256.833" height="283.008" filterUnits="userSpaceOnUse" color-interpolation-filters="sRGB">
<feFlood flood-opacity="0" result="BackgroundImageFix"/>
<feColorMatrix in="SourceAlpha" type="matrix" values="0 0 0 0 0 0 0 0 0 0 0 0 0 0 0 0 0 0 127 0" result="hardAlpha"/>
<feOffset dy="6.54354"/>
<feGaussianBlur stdDeviation="19.6306"/>
<feComposite in2="hardAlpha" operator="out"/>
<feColorMatrix type="matrix" values="0 0 0 0 0 0 0 0 0 0 0 0 0 0 0 0 0 0 0.25 0"/>
<feBlend mode="normal" in2="BackgroundImageFix" result="effect1_dropShadow_329_316"/>
<feBlend mode="normal" in="SourceGraphic" in2="effect1_dropShadow_329_316" result="shape"/>
</filter>
<filter id="filter3_d_329_316" x="1055.88" y="73.6148" width="227.388" height="247.019" filterUnits="userSpaceOnUse" color-interpolation-filters="sRGB">
<feFlood flood-opacity="0" result="BackgroundImageFix"/>
<feColorMatrix in="SourceAlpha" type="matrix" values="0 0 0 0 0 0 0 0 0 0 0 0 0 0 0 0 0 0 127 0" result="hardAlpha"/>
<feOffset dy="6.54354"/>
<feGaussianBlur stdDeviation="19.6306"/>
<feComposite in2="hardAlpha" operator="out"/>
<feColorMatrix type="matrix" values="0 0 0 0 0 0 0 0 0 0 0 0 0 0 0 0 0 0 0.25 0"/>
<feBlend mode="normal" in2="BackgroundImageFix" result="effect1_dropShadow_329_316"/>
<feBlend mode="normal" in="SourceGraphic" in2="effect1_dropShadow_329_316" result="shape"/>
</filter>
<linearGradient id="paint0_linear_329_316" x1="645.273" y1="146.037" x2="645.273" y2="197.223" gradientUnits="userSpaceOnUse">
<stop stop-color="#737DC9"/>
<stop offset="1" stop-color="#737DC9" stop-opacity="0"/>
</linearGradient>
<linearGradient id="paint1_linear_329_316" x1="640.365" y1="371.345" x2="640.365" y2="428.601" gradientUnits="userSpaceOnUse">
<stop stop-color="white"/>
<stop offset="1" stop-color="white" stop-opacity="0"/>
</linearGradient>
<linearGradient id="paint2_linear_329_316" x1="640.365" y1="371.345" x2="640.365" y2="428.601" gradientUnits="userSpaceOnUse">
<stop stop-color="#737DC9"/>
<stop offset="1" stop-color="#737DC9" stop-opacity="0"/>
</linearGradient>
<linearGradient id="paint3_linear_329_316" x1="640.365" y1="301.002" x2="640.365" y2="358.258" gradientUnits="userSpaceOnUse">
<stop stop-color="white"/>
<stop offset="1" stop-color="white" stop-opacity="0"/>
</linearGradient>
<linearGradient id="paint4_linear_329_316" x1="640.365" y1="301.002" x2="640.365" y2="358.258" gradientUnits="userSpaceOnUse">
<stop stop-color="#737DC9"/>
<stop offset="1" stop-color="#737DC9" stop-opacity="0"/>
</linearGradient>
<linearGradient id="paint5_linear_329_316" x1="640.365" y1="441.688" x2="640.365" y2="498.944" gradientUnits="userSpaceOnUse">
<stop stop-color="white"/>
<stop offset="1" stop-color="white" stop-opacity="0"/>
</linearGradient>
<linearGradient id="paint6_linear_329_316" x1="640.365" y1="441.688" x2="640.365" y2="498.944" gradientUnits="userSpaceOnUse">
<stop stop-color="#737DC9"/>
<stop offset="1" stop-color="#737DC9" stop-opacity="0"/>
</linearGradient>
<clipPath id="clip0_329_316">
<rect x="509.494" y="441.688" width="261.741" height="34.3536" rx="1.63588" fill="white"/>
</clipPath>
</defs>
</svg>
