<svg width="297" height="38" viewBox="0 0 297 38" fill="none" xmlns="http://www.w3.org/2000/svg">
    <path
        d="M45.916 30.4972C44.0929 30.4972 42.332 30.29 40.6333 29.8757C38.9345 29.4614 37.5361 28.9227 36.4382 28.2598L38.7998 22.9149C39.8357 23.5157 40.9854 24.0026 42.2491 24.3755C43.5336 24.7276 44.7766 24.9037 45.9781 24.9037C46.6825 24.9037 47.2315 24.8623 47.6251 24.7794C48.0394 24.6758 48.3398 24.5412 48.5263 24.3755C48.7127 24.189 48.8059 23.9715 48.8059 23.7229C48.8059 23.3293 48.5884 23.0185 48.1534 22.7906C47.7183 22.5628 47.1382 22.3763 46.4132 22.2313C45.7088 22.0656 44.9319 21.8998 44.0826 21.7341C43.2332 21.5477 42.3734 21.3094 41.5033 21.0194C40.654 20.7293 39.8667 20.3461 39.1417 19.8696C38.4373 19.3931 37.8676 18.7716 37.4325 18.0051C36.9975 17.2179 36.78 16.2442 36.78 15.0841C36.78 13.7375 37.1529 12.5152 37.8987 11.4173C38.6652 10.2986 39.7942 9.40776 41.2858 8.74483C42.7981 8.0819 44.673 7.75043 46.9104 7.75043C48.3812 7.75043 49.8314 7.90581 51.2608 8.21656C52.6903 8.5273 53.9747 9.00378 55.1141 9.646L52.9078 14.9598C51.8305 14.4212 50.7844 14.0172 49.7692 13.7479C48.7749 13.4786 47.8012 13.3439 46.8482 13.3439C46.1439 13.3439 45.5845 13.406 45.1702 13.5303C44.7558 13.6546 44.4555 13.8204 44.269 14.0275C44.1033 14.2347 44.0204 14.4626 44.0204 14.7112C44.0204 15.0841 44.2379 15.3845 44.673 15.6124C45.108 15.8195 45.6777 15.9956 46.3821 16.1406C47.1072 16.2856 47.8944 16.441 48.7438 16.6068C49.6139 16.7725 50.4736 17.0004 51.323 17.2904C52.1724 17.5804 52.9492 17.9637 53.6536 18.4402C54.3787 18.9167 54.9587 19.5381 55.3938 20.3047C55.8288 21.0712 56.0464 22.0241 56.0464 23.1635C56.0464 24.4894 55.6631 25.7117 54.8966 26.8304C54.1508 27.9283 53.0321 28.8192 51.5405 29.5028C50.0489 30.1657 48.1741 30.4972 45.916 30.4972ZM63.3669 30V20.46L65.0449 24.8416L55.1632 8.24763H62.9008L69.5819 19.5899H65.076L71.8193 8.24763H78.9043L69.0847 24.8416L70.7006 20.46V30H63.3669ZM85.7614 30L76.5633 8.24763H84.4563L91.9453 26.6128H87.253L94.9596 8.24763H102.169L92.9708 30H85.7614ZM109.611 16.3271H119.306V21.6098H109.611V16.3271ZM110.108 24.4687H120.984V30H102.899V8.24763H120.58V13.7789H110.108V24.4687ZM123.807 30V8.24763H134.28C136.31 8.24763 138.06 8.57909 139.531 9.24202C141.023 9.90495 142.173 10.8579 142.981 12.1009C143.789 13.3232 144.192 14.7733 144.192 16.4514C144.192 18.1294 143.789 19.5796 142.981 20.8019C142.173 22.0034 141.023 22.9253 139.531 23.5675C138.06 24.2097 136.31 24.5308 134.28 24.5308H127.878L131.141 21.5166V30H123.807ZM136.828 30L131.483 22.0759H139.252L144.659 30H136.828ZM131.141 22.3245L127.878 18.9995H133.814C134.829 18.9995 135.574 18.7716 136.051 18.3159C136.548 17.8601 136.797 17.2386 136.797 16.4514C136.797 15.6642 136.548 15.0427 136.051 14.5869C135.574 14.1311 134.829 13.9032 133.814 13.9032H127.878L131.141 10.5782V22.3245Z"
        fill="white" />
    <path fill-rule="evenodd" clip-rule="evenodd"
        d="M151.468 31.0001V7.24768H163.189C165.734 7.24768 168.02 7.71552 170.021 8.68151C172.022 9.62649 173.608 10.9904 174.751 12.7732C175.907 14.5754 176.463 16.6964 176.463 19.0928C176.463 21.5083 175.907 23.648 174.754 25.4697L174.751 25.4745C173.609 27.2564 172.024 28.6297 170.025 29.5953L170.017 29.5993C168.017 30.5432 165.732 31.0001 163.189 31.0001H151.468ZM169.59 9.5839C167.746 8.69309 165.612 8.24768 163.189 8.24768H152.468V30.0001H163.189C165.612 30.0001 167.746 29.565 169.59 28.6949C171.434 27.8041 172.874 26.5508 173.909 24.9349C174.945 23.2983 175.463 21.3509 175.463 19.0928C175.463 16.8554 174.945 14.9288 173.909 13.3129C172.874 11.697 171.434 10.454 169.59 9.5839ZM165.134 22.7974C165.742 22.4935 166.205 22.0548 166.542 21.4631C166.876 20.8566 167.067 20.0803 167.067 19.0928C167.067 18.1259 166.876 17.3729 166.545 16.7897C166.208 16.1955 165.744 15.755 165.134 15.4503L165.125 15.4455C164.525 15.1377 163.787 14.9655 162.878 14.9655H160.801V23.2823H162.878C163.787 23.2823 164.525 23.1101 165.125 22.8023L165.134 22.7974ZM159.801 24.2823V13.9655H162.878C163.914 13.9655 164.815 14.1623 165.581 14.5559C166.369 14.9495 166.98 15.5295 167.415 16.2961C167.85 17.0626 168.067 17.9948 168.067 19.0928C168.067 20.2115 167.85 21.1644 167.415 21.9517C166.98 22.7182 166.369 23.2983 165.581 23.6919C164.815 24.0855 163.914 24.2823 162.878 24.2823H159.801ZM177.762 31.0001V7.24768H187.096V31.0001H177.762ZM196.302 30.627L196.294 30.624C194.71 30.0216 193.314 29.1684 192.117 28.0619L192.11 28.0554C190.932 26.945 190.015 25.6302 189.361 24.1202C188.701 22.5937 188.378 20.9235 188.378 19.1239C188.378 17.3242 188.701 15.6541 189.361 14.1276C190.017 12.6133 190.947 11.2966 192.148 10.1858C193.349 9.07541 194.76 8.23145 196.368 7.65025C198.003 7.0462 199.778 6.75049 201.683 6.75049C203.949 6.75049 206.004 7.13186 207.827 7.9192C209.664 8.70368 211.196 9.83422 212.402 11.3136L213.011 12.0597L206.84 17.4946L206.18 16.7342C205.571 16.0325 204.929 15.5323 204.26 15.2063L204.246 15.1994L204.232 15.1922C203.602 14.8604 202.883 14.6858 202.056 14.6858C201.354 14.6858 200.741 14.7933 200.206 14.9932C199.697 15.1911 199.274 15.4729 198.926 15.8375C198.57 16.2092 198.288 16.6608 198.083 17.2065C197.884 17.7373 197.774 18.3711 197.774 19.1239C197.774 19.8261 197.881 20.4533 198.085 21.0148C198.289 21.5584 198.571 22.0085 198.926 22.3791C199.282 22.752 199.704 23.0465 200.198 23.2636C200.706 23.4572 201.29 23.562 201.963 23.562C202.532 23.562 203.089 23.4889 203.636 23.3423V17.5334H212.006V27.3758L212 27.7651L212.006 28.2645L211.645 28.5422L211.236 28.7759C209.895 29.6267 208.393 30.2814 206.739 30.7454C204.962 31.2439 203.224 31.4972 201.528 31.4972C199.664 31.4972 197.922 31.2119 196.31 30.6299L196.302 30.627ZM209.639 28.5422C208.667 29.0491 207.61 29.4625 206.469 29.7825C204.77 30.259 203.123 30.4972 201.528 30.4972C199.767 30.4972 198.141 30.2279 196.649 29.6893C195.178 29.13 193.894 28.3427 192.796 27.3276C191.719 26.3125 190.88 25.111 190.279 23.7229C189.678 22.3349 189.378 20.8019 189.378 19.1239C189.378 17.4458 189.678 15.9128 190.279 14.5248C190.88 13.1368 191.729 11.9352 192.827 10.9201C193.925 9.90501 195.22 9.12814 196.712 8.58951C198.224 8.03016 199.881 7.75049 201.683 7.75049C203.838 7.75049 205.754 8.11303 207.432 8.83811C208.804 9.42344 209.979 10.2113 210.959 11.2016C211.007 11.2499 211.054 11.2986 211.101 11.3477C211.283 11.5397 211.459 11.739 211.627 11.9456L206.935 16.0785C206.907 16.046 206.878 16.0137 206.85 15.9818C206.19 15.2428 205.472 14.6846 204.698 14.3073C203.911 13.8929 203.03 13.6858 202.056 13.6858C201.248 13.6858 200.513 13.8101 199.85 14.0587C199.208 14.3073 198.659 14.6698 198.203 15.1463C197.747 15.6228 197.395 16.1925 197.147 16.8554C196.898 17.5183 196.774 18.2745 196.774 19.1239C196.774 19.9318 196.898 20.6776 197.147 21.3613C197.395 22.0242 197.747 22.5939 198.203 23.0704C198.659 23.5469 199.197 23.9197 199.819 24.1891C200.461 24.4377 201.176 24.562 201.963 24.562C202.53 24.562 203.088 24.4989 203.636 24.3727C203.888 24.3145 204.139 24.243 204.387 24.158C204.469 24.1277 204.552 24.0952 204.636 24.0606V18.5334H211.006V27.7316C210.729 27.9179 210.443 28.0952 210.149 28.2635C209.982 28.3593 209.812 28.4523 209.639 28.5422ZM213.752 31.0001V7.24768H223.086V31.0001H213.752ZM229.961 31.0001V14.9344H223.591V7.24768H245.665V14.9344H239.295V31.0001H229.961ZM238.295 13.9344H244.665V8.24768H224.591V13.9344H230.961V30.0001H238.295V13.9344ZM242.209 31.0001L252.592 7.24768H261.11L270.756 29.315V7.24768H280.09V23.3134H289.91V31.0001H261.695L260.238 27.2089H253.339L251.882 31.0001H242.209ZM252.652 26.2089H260.925L262.382 30.0001H269.964L260.455 8.24768H253.246L243.737 30.0001H251.195L252.652 26.2089ZM256.789 15.4471L254.683 20.9262H258.894L256.789 15.4471ZM257.439 19.9262L256.789 18.2345L256.138 19.9262H257.439ZM279.09 24.3134V8.24768H271.756V30.0001H288.91V24.3134H279.09ZM178.762 30.0001H186.096V8.24768H178.762V30.0001ZM214.752 30.0001H222.086V8.24768H214.752V30.0001Z"
        fill="white" />
    <path
        d="M27.0223 23.4706L17.3752 34.7971L15.2508 32.9486C13.3709 31.3127 13.1568 28.4486 14.7727 26.5515L24.4198 15.225L26.5441 17.0735C28.424 18.7093 28.6381 21.5734 27.0223 23.4706Z"
        stroke="white" />
    <path
        d="M7.47411 15.0537L17.1001 3.70876L19.2278 5.55317C21.1108 7.18547 21.3303 10.0491 19.718 11.9493L10.092 23.2943L7.96432 21.4499C6.0813 19.8176 5.86183 16.9539 7.47411 15.0537Z"
        stroke="white" />
    <path
        d="M24.3534 14.4778C22.2651 12.6607 19.1172 12.896 17.3223 15.0034L9.87587 23.7461L10.2055 24.033C12.2938 25.8501 15.4417 25.6148 17.2366 23.5074L24.683 14.7647L24.3534 14.4778Z"
        fill="white" />
</svg>